<?xml version="1.0" standalone="no"?><!DOCTYPE svg PUBLIC "-//W3C//DTD SVG 1.1//EN" "http://www.w3.org/Graphics/SVG/1.1/DTD/svg11.dtd"><svg t="1597826252399" class="icon" viewBox="0 0 1024 1024" version="1.1" xmlns="http://www.w3.org/2000/svg" p-id="10513" width="200" height="200" xmlns:xlink="http://www.w3.org/1999/xlink"><defs><style type="text/css"></style></defs><path d="M764.725 372.509c-2.454-5.224-7.73-8.576-13.546-8.576H574.044l174.82-273.968a14.73 14.73 0 0 0 0.461-15.09c-2.628-4.749-7.654-7.686-13.096-7.686H497.055a14.971 14.971 0 0 0-13.376 8.205L259.453 520.51a14.728 14.728 0 0 0 0.655 14.422 15.004 15.004 0 0 0 12.723 7.046h153.712L259.048 936.827c-2.856 6.751-0.316 14.583 5.976 18.412a14.975 14.975 0 0 0 7.791 2.18c4.29 0 8.52-1.824 11.452-5.265l478.35-563.816a14.767 14.767 0 0 0 2.108-15.829z" p-id="10514" fill="#fed71a"></path></svg>